<?xml version="1.0"?><svg width="580.75818" height="308.70233" xmlns="http://www.w3.org/2000/svg">
 <metadata id="metadata7">image/svg+xml</metadata>

 <g>
  <title>Layer 1</title>
  <g transform="matrix(0.381406 -0.214098 0.214098 0.381406 -286.497 -257.191)" id="g17987">
   <path fill="#7f7f7f" stroke="#000000" stroke-width="5.1" stroke-miterlimit="4" id="path16231" d="m133.78775,1393.990601a59.175507,61.566433 0 1 1 -0.023041,-1.718018"/>
   <path fill="#7f7f7f" stroke="#000000" stroke-width="5.1" stroke-miterlimit="4" id="path17106" d="m147.732178,1414.480225a49.244061,51.233719 0 1 1 -0.01918,-1.429688"/>
   <path fill="#7f7f7f" stroke="#000000" stroke-width="5.1" stroke-miterlimit="4" id="path17110" d="m159.94339,1439.848145a39.680027,41.283257 0 1 1 -0.015457,-1.1521"/>
   <path fill="#7f7f7f" stroke="#000000" stroke-width="5.1" stroke-miterlimit="4" id="path17108" d="m173.575867,1460.855713a36.142136,37.602425 0 1 1 -0.014084,-1.049316"/>
   <path fill="#7f7f7f" fill-rule="evenodd" stroke-width="1px" d="m144.250275,1442.335327c-11.700409,-30.522827 -38.909203,-78.646973 -62.674255,-90.529419c-12.712029,-6.355957 -51.651159,23.046387 -46.756989,35.813843c10.359879,27.025757 63.757126,69.184692 92.519142,83.565674c7.715065,3.857422 20.465736,-19.579712 16.912102,-28.850098z" id="path17112"/>
  </g>
  <g transform="matrix(0.323041 -0.0921652 0.0921652 0.323041 -97.2307 -193.82)" id="g17994">
   <path fill="#bfbfbf" stroke="#000000" stroke-width="5.1" stroke-miterlimit="4" id="path17996" d="m133.78775,1393.990601a59.175507,61.566433 0 1 1 -0.023041,-1.718018"/>
   <path fill="#bfbfbf" stroke="#000000" stroke-width="5.1" stroke-miterlimit="4" id="path17998" d="m147.732178,1414.480225a49.244061,51.233719 0 1 1 -0.01918,-1.429688"/>
   <path fill="#bfbfbf" stroke="#000000" stroke-width="5.1" stroke-miterlimit="4" id="path18000" d="m159.94339,1439.848145a39.680027,41.283257 0 1 1 -0.015457,-1.1521"/>
   <path fill="#bfbfbf" stroke="#000000" stroke-width="5.1" stroke-miterlimit="4" id="path18002" d="m173.575867,1460.855713a36.142136,37.602425 0 1 1 -0.014084,-1.049316"/>
   <path fill="#bfbfbf" fill-rule="evenodd" stroke-width="1px" d="m144.250275,1442.335327c-11.700409,-30.522827 -38.909203,-78.646973 -62.674255,-90.529419c-12.712029,-6.355957 -51.651159,23.046387 -46.756989,35.813843c10.359879,27.025757 63.757126,69.184692 92.519142,83.565674c7.715065,3.857422 20.465736,-19.579712 16.912102,-28.850098z" id="path18004"/>
  </g>
  <path fill="#007fff" fill-rule="evenodd" stroke="#000000" stroke-width="2.230682" stroke-miterlimit="4" id="path3979" d="m200.823837,213.210464c-18.71048,-4.024948 -46.123489,21.865112 -55.696289,43.512711c-9.572784,21.647583 -1.305374,39.052612 17.40509,43.077576c18.71048,4.024933 47.863998,-5.330292 57.436798,-26.977875c9.5728,-21.647598 -0.435135,-55.587509 -19.145599,-59.612411z"/>
  <path fill="#007fff" fill-rule="evenodd" stroke="#000000" stroke-width="2.230682" stroke-miterlimit="4" id="path3981" d="m472.811371,212.161087c-18.710449,-4.024902 -46.123444,21.865128 -55.696259,43.512726c-9.572784,21.647598 -1.305359,39.052658 17.40509,43.077591c18.71048,4.024933 47.863953,-5.330292 57.436768,-26.977875c9.572784,-21.647583 -0.43512,-55.587509 -19.145599,-59.612442z"/>
  <path fill="#ffff00" fill-rule="evenodd" stroke="#000000" stroke-width="2.230682" stroke-miterlimit="4" d="m95.342178,252.310043l-0.615372,-20.922363l5.538261,-3.692169l-3.076805,-11.076523l3.692177,-1.846085l0.615372,-20.306992l-6.153633,-1.846085l0.615349,-8.615082l6.153633,-3.692169c5.435707,-39.793457 6.563881,-82.356056 20.92234,-115.688179l-3.076813,-7.999748c40.819069,-34.665419 133.328606,-39.178089 209.223335,-44.921479c170.396606,-16.47224 227.889313,26.050382 235.683929,45.536839l-22.153076,5.538311l-4.307495,16.614769l9.845764,79.997169l12.922668,-1.230713l5.538269,7.999695l-13.538025,9.845795l-9.230408,41.229324l7.384338,0.615356l-3.6922,32.614227l-3.692139,14.768692l-48.613678,18.153229c-16.512268,-16.717407 25.435028,-52.81868 -32.614227,-64.305435c-21.537689,-2.66658 -36.921753,27.281082 -49.844391,54.151932c-64.407959,4.102386 -133.123474,5.128021 -198.14679,1.846069c0.82048,-10.461151 26.690598,-42.969803 -16.614807,-54.151917c-47.898743,-8.267426 -30.973251,31.998901 -52.305832,44.921509l-53.536568,-3.6922l3.07682,-9.845779zm469.895798,-194.345074c-3.778076,26.549503 -3.492432,74.182995 -4.656555,99.544338" id="path3961"/>
  <path fill="#000000" fill-rule="evenodd" stroke="#000000" stroke-width="2.230682" stroke-miterlimit="4" id="path5731" d="m459.291077,246.118973c-4.688293,-1.008484 -11.557129,5.478729 -13.95578,10.902908c-2.398651,5.424255 -0.327087,9.7854 4.361176,10.793884c4.688263,1.008545 11.993225,-1.335541 14.391876,-6.759796c2.398651,-5.424179 -0.109039,-13.928467 -4.797272,-14.936996z"/>
  <path fill="#007fff" fill-rule="evenodd" stroke="#000000" stroke-width="2.230682" stroke-miterlimit="4" id="path3965" d="m514.593811,273.065063c-0.512756,-48.818848 34.973083,-11.794464 43.998474,-25.84523c5.743347,-0.307693 3.487061,12.922592 -0.923035,20.614609c-3.076843,7.897186 -35.075684,5.640839 -43.075439,5.230621z"/>
  <path fill="#007fff" fill-rule="evenodd" stroke="#000000" stroke-width="2.230682" stroke-miterlimit="4" id="path3967" d="m560.36676,213.682541c5.128052,-7.897186 6.256165,-27.486176 0.307678,-35.383347c-10.973938,-16.614838 -17.948059,33.537262 -15.076355,37.537079c8.922729,0.820557 6.768982,-1.7435 14.768677,-2.153732z"/>
  <path fill="#bfbfbf" fill-rule="evenodd" stroke="#000000" stroke-width="2.230682" stroke-miterlimit="4" id="path3969" d="m200.569214,75.393219c-1.640976,29.332283 -3.281937,58.664581 -4.922897,87.996872c-21.43515,4.717804 -41.331879,2.974243 -68.920639,6.768982c1.435837,-33.84491 1.333282,-65.843796 12.614929,-94.15049c20.409546,-0.205093 40.819077,-0.410233 61.228607,-0.615364z"/>
  <path fill="#bfbfbf" fill-rule="evenodd" stroke="#000000" stroke-width="2.230682" stroke-miterlimit="4" id="path3971" d="m287.950714,69.547302c-3.487061,26.870834 -4.820343,97.432404 -9.845795,94.765854c-18.050629,1.333298 -45.639404,-1.025635 -73.228165,0c1.435852,-33.844971 3.179367,-62.767029 4.307541,-92.919769c20.409531,-0.205139 58.356903,-1.640999 78.766418,-1.846085z"/>
  <path fill="#bfbfbf" fill-rule="evenodd" stroke="#000000" stroke-width="2.230682" stroke-miterlimit="4" id="path3973" d="m365.794098,68.316566c-1.640961,29.332291 -1.74353,64.818214 -3.384491,94.150505c-21.43512,4.717773 -46.254761,3.5896 -74.151215,0c1.435852,-33.844971 2.871704,-57.844131 6.153656,-91.996765c20.409515,-0.205078 50.972534,-1.948639 71.38205,-2.15374z"/>
  <path fill="#bfbfbf" fill-rule="evenodd" stroke="#000000" stroke-width="2.230682" stroke-miterlimit="4" id="path3975" d="m451.637207,67.085854c-1.640961,29.332283 -2.051208,68.510384 -7.692017,96.919609c-21.43515,4.717804 -47.485504,0.512787 -74.766571,-1.230728c1.435852,-33.844925 0.102539,-65.843796 3.692169,-96.611946c20.409546,-0.205139 58.356903,1.128151 78.766418,0.923065z"/>
  <path fill="#bfbfbf" fill-rule="evenodd" stroke="#000000" stroke-width="2.230682" stroke-miterlimit="4" id="path3977" d="m525.642883,66.71254c4.885925,31.943069 4.115234,63.886124 2.474243,93.218414c-21.43512,8.198822 -44.275909,2.890533 -71.864685,4.074509c1.435852,-33.84494 -2.358887,-68.920616 2.461456,-99.073395c20.409515,-0.205139 46.084259,-1.930557 66.928986,1.780472z"/>
  <path fill="#000000" fill-rule="evenodd" stroke="#000000" stroke-width="0.437389px" id="path6606" d="m140.509766,167.393158c-4.641342,0.290085 -9.2827,2.118637 -13.924065,2.408707c3.771095,-30.748993 2.619301,-64.267105 11.313301,-93.785378c20.305939,-0.29007 42.457962,-0.580185 62.763901,-0.87027c-0.2901,6.091774 -2.426254,12.183556 -2.716339,18.27533c-16.244751,-6.153618 -33.104858,-6.153618 -48.734253,0c-7.823746,24.657227 -11.339966,47.468315 -8.702545,73.971611z"/>
  <path fill="#000000" fill-rule="evenodd" stroke="#000000" stroke-width="0.437389px" id="path7481" d="m210.986008,163.458847c-4.641357,0.290085 -0.667633,-0.342819 -5.30899,-0.052734c1.617325,-31.056717 4.465378,-60.882553 3.621262,-91.93924c20.305939,-0.29007 58.149719,-1.195564 78.455658,-1.485641c-0.2901,6.091782 -3.349304,23.567726 -3.639404,29.659508c10.215881,-34.152626 -47.258194,-19.076233 -63.50293,-19.076233c-6.900726,11.119255 -10.416916,40.083961 -9.625595,82.894341z"/>
  <path fill="#000000" fill-rule="evenodd" stroke="#000000" stroke-width="0.437389px" id="path7483" d="m298.601196,163.001907c-4.641357,0.290085 -5.898224,-0.342819 -10.539581,-0.052734c3.771088,-30.749008 3.23468,-61.497955 7.005768,-92.246956c20.305939,-0.29007 50.457672,-1.810921 70.763611,-2.10099c-0.2901,6.091774 -0.887848,6.02993 -1.177948,12.121704c-20.552277,-9.230484 -52.796448,-6.153618 -63.195251,0c-6.28537,26.503296 -6.109375,57.314102 -2.856598,82.278976z"/>
  <path fill="#000000" fill-rule="evenodd" stroke="#000000" stroke-width="0.437389px" id="path7485" d="m380.699982,162.606781c-4.641357,0.29007 -7.107086,-1.160355 -11.748444,-0.870285c3.771088,-30.748993 1.015289,-64.978935 4.786377,-95.727928c20.305939,-0.290085 56.970062,1.576149 77.276001,1.286079c-0.29007,6.091766 -0.838654,16.118965 -1.128723,22.210739c0.72522,-22.626595 -55.551239,-14.794319 -71.79599,-14.794319c-2.900848,24.657227 -7.107086,63.238487 2.610779,87.895714z"/>
  <path fill="#000000" fill-rule="evenodd" stroke="#000000" stroke-width="0.437389px" id="path7487" d="m470.771301,165.217545c-4.641357,0.290085 -9.282715,0.5802 -13.924072,0.87027c1.160309,-30.748993 -1.160339,-69.765373 2.610748,-100.514366c20.305939,-0.290077 38.001129,-1.450432 65.704193,0.87027c-0.290039,6.091774 1.59552,5.656609 1.30542,11.748405c-15.809631,-13.924065 -45.543335,-6.091797 -61.788055,-6.091797c-2.900879,24.657234 -5.801727,71.94101 6.091766,93.117218z"/>
  <path fill="none" fill-opacity="0.75" fill-rule="evenodd" stroke="#000000" stroke-width="2.230682" stroke-miterlimit="4" id="path9237" d="m499.272125,277.215637c7.759796,-32.271957 8.557495,-66.284393 -42.860046,-60.917801c-52.7229,4.786377 -32.126862,30.790543 -49.822052,47.325363c-10.588074,8.049835 -24.222076,1.191315 -33.722351,4.889893"/>
  <path fill="none" fill-opacity="0.75" fill-rule="evenodd" stroke="#000000" stroke-width="2.230682" stroke-miterlimit="4" id="path9241" d="m512.978638,180.446991l-372.468872,1.740494"/>
  <path fill="none" fill-opacity="0.75" fill-rule="evenodd" stroke="#000000" stroke-width="2.230682" stroke-miterlimit="4" id="path9243" d="m509.49762,202.203354l-355.934036,-3.480988"/>
  <path fill="none" fill-opacity="0.75" fill-rule="evenodd" stroke="#000000" stroke-width="2.230682" stroke-miterlimit="4" id="path9239" d="m223.781174,269.573456c11.437531,-24.37619 9.125916,-52.36084 -29.28096,-57.12912c-52.476486,-1.666367 -35.961456,40.756927 -54.816971,46.123474c-7.832291,2.465729 -13.488945,-6.381866 -20.886101,-4.351273"/>
  <path fill="#000000" fill-rule="evenodd" stroke="#000000" stroke-width="2.230682" stroke-miterlimit="4" id="path5729" d="m186.466293,249.759369c-4.688248,-1.008484 -11.557083,5.478714 -13.955719,10.902924c-2.398651,5.424225 -0.327087,9.7854 4.36116,10.793854c4.688263,1.008545 11.993195,-1.335571 14.391846,-6.759796c2.398636,-5.424164 -0.109024,-13.928467 -4.797287,-14.936981z"/>
  <path fill="#007fff" fill-rule="evenodd" stroke="#000000" stroke-width="2.230682" stroke-miterlimit="4" id="path3963" d="m120.572052,274.463074c2.66658,-7.897186 -2.051208,-24.409348 -28.922066,-19.076218c-0.820473,6.15361 0.205124,14.153336 3.07682,18.153152c8.92276,0.820557 17.84552,1.333282 25.845245,0.923065z"/>
 </g>
</svg>